<svg width="457" height="311" viewBox="0 0 457 311" fill="none" xmlns="http://www.w3.org/2000/svg">
<path d="M66.0091 0L130.271 77.75H346.043C348.949 77.75 350.502 81.1707 348.589 83.3565L290.556 149.645C285.418 155.514 277.995 158.88 270.193 158.88H197.915L318.332 301.404C323.473 307.489 331.036 311 339.005 311H414.377L340.285 217.629C338.17 214.964 338.365 211.143 340.741 208.708L447.394 99.3772C459.41 87.0595 460.254 67.6869 449.355 54.3722L419.636 18.0683C412.016 8.76052 400.657 3.31161 388.625 3.19255L66.0091 0Z" fill="white"/>
<path d="M141.442 119.332L226.607 119.332L96.0242 268.946C90.8855 274.834 83.4502 278.212 75.6331 278.212L0 278.208L120.401 129.372C125.538 123.022 133.271 119.332 141.442 119.332Z" fill="white"/>
</svg>
